<svg xmlns="http://www.w3.org/2000/svg" width="64" height="64" enable-background="new 0 0 64 64" viewBox="0 0 64 64"><path fill="#FFB600" d="M63.5,32c0,10.4-8.4,18.9-18.9,18.9c-10.4,0-18.9-8.5-18.9-18.9v0c0-10.4,8.4-18.9,18.8-18.9     C55.1,13.1,63.5,21.6,63.5,32C63.5,32,63.5,32,63.5,32z"/><path fill="#F7981D" d="M44.6,13.1c10.4,0,18.9,8.5,18.9,18.9c0,0,0,0,0,0c0,10.4-8.4,18.9-18.9,18.9c-10.4,0-18.9-8.5-18.9-18.9     "/><path fill="#FF8500" d="M44.6,13.1c10.4,0,18.9,8.5,18.9,18.9c0,0,0,0,0,0c0,10.4-8.4,18.9-18.9,18.9"/><path fill="#FF5050" d="M19.2,13.1C8.9,13.2,0.5,21.6,0.5,32c0,10.4,8.4,18.9,18.9,18.9c4.9,0,9.3-1.9,12.7-4.9l0,0h0     c0.7-0.6,1.3-1.3,1.9-2h-3.9c-0.5-0.6-1-1.3-1.4-1.9h6.7c0.4-0.6,0.8-1.3,1.1-2h-8.9c-0.3-0.6-0.6-1.3-0.8-2h10.4     c0.6-1.9,1-3.9,1-6c0-1.4-0.2-2.7-0.4-4H26.2c0.1-0.7,0.3-1.3,0.5-2h10.4c-0.2-0.7-0.5-1.4-0.8-2h-8.8c0.3-0.7,0.7-1.3,1.1-2h6.7     c-0.4-0.7-0.9-1.4-1.5-2h-3.7c0.6-0.7,1.2-1.3,1.9-1.9c-3.3-3.1-7.8-4.9-12.7-4.9C19.3,13.1,19.3,13.1,19.2,13.1z"/><path fill="#E52836" d="M0.5,32c0,10.4,8.4,18.9,18.9,18.9c4.9,0,9.3-1.9,12.7-4.9l0,0h0c0.7-0.6,1.3-1.3,1.9-2h-3.9     c-0.5-0.6-1-1.3-1.4-1.9h6.7c0.4-0.6,0.8-1.3,1.1-2h-8.9c-0.3-0.6-0.6-1.3-0.8-2h10.4c0.6-1.9,1-3.9,1-6c0-1.4-0.2-2.7-0.4-4     H26.2c0.1-0.7,0.3-1.3,0.5-2h10.4c-0.2-0.7-0.5-1.4-0.8-2h-8.8c0.3-0.7,0.7-1.3,1.1-2h6.7c-0.4-0.7-0.9-1.4-1.5-2h-3.7     c0.6-0.7,1.2-1.3,1.9-1.9c-3.3-3.1-7.8-4.9-12.7-4.9c0,0-0.1,0-0.1,0"/><path fill="#CB2026" d="M19.4,50.9c4.9,0,9.3-1.9,12.7-4.9l0,0h0c0.7-0.6,1.3-1.3,1.9-2h-3.9c-0.5-0.6-1-1.3-1.4-1.9h6.7     c0.4-0.6,0.8-1.3,1.1-2h-8.9c-0.3-0.6-0.6-1.3-0.8-2h10.4c0.6-1.9,1-3.9,1-6c0-1.4-0.2-2.7-0.4-4H26.2c0.1-0.7,0.3-1.3,0.5-2     h10.4c-0.2-0.7-0.5-1.4-0.8-2h-8.8c0.3-0.7,0.7-1.3,1.1-2h6.7c-0.4-0.7-0.9-1.4-1.5-2h-3.7c0.6-0.7,1.2-1.3,1.9-1.9     c-3.3-3.1-7.8-4.9-12.7-4.9c0,0-0.1,0-0.1,0"/><path fill="#FFF" d="M26.1 36.8l.3-1.7c-.1 0-.3.1-.5.1-.7 0-.8-.4-.7-.6l.6-3.5h1.1l.3-1.9h-1l.2-1.2h-2c0 0-1.2 6.6-1.2 7.4 0 1.2.7 1.7 1.6 1.7C25.4 37.1 25.9 36.9 26.1 36.8zM26.8 33.6c0 2.8 1.9 3.5 3.5 3.5 1.5 0 2.1-.3 2.1-.3l.4-1.9c0 0-1.1.5-2.1.5-2.2 0-1.8-1.6-1.8-1.6h4.1c0 0 .3-1.3.3-1.8 0-1.3-.7-2.9-2.9-2.9C28.3 28.9 26.8 31.1 26.8 33.6zM30.3 30.7c1.1 0 .9 1.3.9 1.4H29C29 32 29.2 30.7 30.3 30.7zM43 36.8l.4-2.2c0 0-1 .5-1.7.5-1.4 0-2-1.1-2-2.3 0-2.4 1.2-3.7 2.6-3.7 1 0 1.8.6 1.8.6l.3-2.1c0 0-1.2-.5-2.3-.5-2.3 0-4.6 2-4.6 5.8 0 2.5 1.2 4.2 3.6 4.2C41.9 37.1 43 36.8 43 36.8zM15.1 28.9c-1.4 0-2.4.4-2.4.4l-.3 1.7c0 0 .9-.4 2.2-.4.7 0 1.3.1 1.3.7 0 .4-.1.5-.1.5s-.6 0-.9 0c-1.7 0-3.6.7-3.6 3 0 1.8 1.2 2.2 1.9 2.2 1.4 0 2-.9 2.1-.9l-.1.8h1.8l.8-5.5C17.8 29 15.8 28.9 15.1 28.9zM15.5 33.4c0 .3-.2 1.9-1.4 1.9-.6 0-.8-.5-.8-.8 0-.5.3-1.2 1.8-1.2C15.4 33.4 15.5 33.4 15.5 33.4zM19.7 37c.5 0 3 .1 3-2.6 0-2.5-2.4-2-2.4-3 0-.5.4-.7 1.1-.7.3 0 1.4.1 1.4.1l.3-1.8c0 0-.7-.2-1.9-.2-1.5 0-3 .6-3 2.6 0 2.3 2.5 2.1 2.5 3 0 .6-.7.7-1.2.7-.9 0-1.8-.3-1.8-.3l-.3 1.8C17.5 36.8 18 37 19.7 37zM59.6 27.3L59.2 30c0 0-.8-1-1.9-1-1.8 0-3.4 2.2-3.4 4.8 0 1.6.8 3.3 2.5 3.3 1.2 0 1.9-.8 1.9-.8l-.1.7h2l1.5-9.6L59.6 27.3zM58.7 32.6c0 1.1-.5 2.5-1.6 2.5-.7 0-1.1-.6-1.1-1.6 0-1.6.7-2.6 1.6-2.6C58.3 30.9 58.7 31.4 58.7 32.6zM4.2 36.9l1.2-7.2.2 7.2H7l2.6-7.2-1.1 7.2h2.1l1.6-9.6H8.9l-2 5.9-.1-5.9H3.9l-1.6 9.6H4.2zM35.2 36.9c.6-3.3.7-6 2.1-5.5.2-1.3.5-1.8.7-2.3 0 0-.1 0-.4 0-.9 0-1.6 1.2-1.6 1.2l.2-1.1h-1.9l-1.3 7.8H35.2zM47.6 28.9c-1.4 0-2.4.4-2.4.4l-.3 1.7c0 0 .9-.4 2.2-.4.7 0 1.3.1 1.3.7 0 .4-.1.5-.1.5s-.6 0-.9 0c-1.7 0-3.6.7-3.6 3 0 1.8 1.2 2.2 1.9 2.2 1.4 0 2-.9 2.1-.9l-.1.8h1.8l.8-5.5C50.4 29 48.3 28.9 47.6 28.9zM48.1 33.4c0 .3-.2 1.9-1.4 1.9-.6 0-.8-.5-.8-.8 0-.5.3-1.2 1.8-1.2C48 33.4 48 33.4 48.1 33.4zM52 36.9c.6-3.3.7-6 2.1-5.5.2-1.3.5-1.8.7-2.3 0 0-.1 0-.4 0-.9 0-1.6 1.2-1.6 1.2l.2-1.1h-1.9l-1.3 7.8H52z"/><path fill="#DCE5E5" d="M23 35.4c0 1.2.7 1.7 1.6 1.7.7 0 1.3-.2 1.5-.3l.3-1.7c-.1 0-.3.1-.5.1-.7 0-.8-.4-.7-.6l.6-3.5h1.1l.3-1.9h-1l.2-1.2M27.8 33.6c0 2.8.9 3.5 2.5 3.5 1.5 0 2.1-.3 2.1-.3l.4-1.9c0 0-1.1.5-2.1.5-2.2 0-1.8-1.6-1.8-1.6h4.1c0 0 .3-1.3.3-1.8 0-1.3-.7-2.9-2.9-2.9C28.3 28.9 27.8 31.1 27.8 33.6zM30.3 30.7c1.1 0 1.3 1.3 1.3 1.4H29C29 32 29.2 30.7 30.3 30.7zM43 36.8l.4-2.2c0 0-1 .5-1.7.5-1.4 0-2-1.1-2-2.3 0-2.4 1.2-3.7 2.6-3.7 1 0 1.8.6 1.8.6l.3-2.1c0 0-1.2-.5-2.3-.5-2.3 0-3.6 2-3.6 5.8 0 2.5.2 4.2 2.6 4.2C41.9 37.1 43 36.8 43 36.8zM12.4 31.1c0 0 .9-.4 2.2-.4.7 0 1.3.1 1.3.7 0 .4-.1.5-.1.5s-.6 0-.9 0c-1.7 0-3.6.7-3.6 3 0 1.8 1.2 2.2 1.9 2.2 1.4 0 2-.9 2.1-.9l-.1.8h1.8l.8-5.5c0-2.3-2-2.4-2.8-2.4M16.5 33.4c0 .3-1.2 1.9-2.4 1.9-.6 0-.8-.5-.8-.8 0-.5.3-1.2 1.8-1.2C15.4 33.4 16.5 33.4 16.5 33.4zM17.5 36.8c0 0 .6.2 2.3.2.5 0 3 .1 3-2.6 0-2.5-2.4-2-2.4-3 0-.5.4-.7 1.1-.7.3 0 1.4.1 1.4.1l.3-1.8c0 0-.7-.2-1.9-.2-1.5 0-2 .6-2 2.6 0 2.3 1.5 2.1 1.5 3 0 .6-.7.7-1.2.7M59.2 30c0 0-.8-1-1.9-1-1.8 0-2.4 2.2-2.4 4.8 0 1.6-.2 3.3 1.5 3.3 1.2 0 1.9-.8 1.9-.8l-.1.7h2l1.5-9.6M59.1 32.6c0 1.1-.9 2.5-2 2.5-.7 0-1.1-.6-1.1-1.6 0-1.6.7-2.6 1.6-2.6C58.3 30.9 59.1 31.4 59.1 32.6zM4.2 36.9l1.2-7.2.2 7.2H7l2.6-7.2-1.1 7.2h2.1l1.6-9.6H9.7l-2.8 5.9-.1-5.9H5.7l-3.4 9.6H4.2zM33.1 36.9h2.1c.6-3.3.7-6 2.1-5.5.2-1.3.5-1.8.7-2.3 0 0-.1 0-.4 0-.9 0-1.6 1.2-1.6 1.2l.2-1.1M44.9 31.1c0 0 .9-.4 2.2-.4.7 0 1.3.1 1.3.7 0 .4-.1.5-.1.5s-.6 0-.9 0c-1.7 0-3.6.7-3.6 3 0 1.8 1.2 2.2 1.9 2.2 1.4 0 2-.9 2.1-.9l-.1.8h1.8l.8-5.5c0-2.3-2-2.4-2.8-2.4M49 33.4c0 .3-1.2 1.9-2.4 1.9-.6 0-.8-.5-.8-.8 0-.5.3-1.2 1.8-1.2C48 33.4 49 33.4 49 33.4zM49.9 36.9H52c.6-3.3.7-6 2.1-5.5.2-1.3.5-1.8.7-2.3 0 0-.1 0-.4 0-.9 0-1.6 1.2-1.6 1.2l.2-1.1"/></svg>